<?xml version="1.0" encoding="utf-8"?>
<!-- Generator: Adobe Illustrator 25.0.0, SVG Export Plug-In . SVG Version: 6.00 Build 0)  -->
<svg version="1.1" id="Layer_1" xmlns="http://www.w3.org/2000/svg" xmlns:xlink="http://www.w3.org/1999/xlink" x="0px" y="0px"
	 viewBox="0 0 56.7 56.7" style="enable-background:new 0 0 56.7 56.7;" xml:space="preserve">
<style type="text/css">
	.st0{fill:#FFFFFF;}
</style>
<g>
	<path class="st0" d="M45.3,21.3c-0.1-1.8-0.4-3.1-0.8-4.1c-0.4-1.1-1.1-2.2-2-3c-0.9-0.9-1.9-1.5-3-2c-1.1-0.4-2.3-0.7-4.1-0.8
		c-1.8-0.1-2.4-0.1-7-0.1s-5.2,0-7,0.1c-1.8,0.1-3.1,0.4-4.1,0.8c-1.1,0.4-2.2,1.1-3,2c-0.9,0.9-1.5,1.9-2,3
		c-0.4,1.1-0.7,2.3-0.8,4.1c-0.1,1.8-0.1,2.4-0.1,7s0,5.2,0.1,7c0.1,1.8,0.4,3.1,0.8,4.1c0.4,1.1,1.1,2.2,2,3c0.9,0.9,1.9,1.5,3,2
		c1.1,0.4,2.3,0.7,4.1,0.8c1.8,0.1,2.4,0.1,7,0.1s5.2,0,7-0.1c1.8-0.1,3.1-0.4,4.1-0.8c2.3-0.9,4.1-2.7,5-5c0.4-1.1,0.7-2.3,0.8-4.1
		c0.1-1.8,0.1-2.4,0.1-7S45.3,23.2,45.3,21.3z M42.2,35.2c-0.1,1.7-0.4,2.6-0.6,3.2c-0.6,1.5-1.7,2.7-3.2,3.2
		c-0.6,0.2-1.5,0.5-3.2,0.6c-1.8,0.1-2.3,0.1-6.9,0.1s-5.1,0-6.9-0.1c-1.7-0.1-2.6-0.4-3.2-0.6c-0.7-0.3-1.4-0.7-2-1.3
		c-0.6-0.6-1-1.2-1.3-2c-0.2-0.6-0.5-1.5-0.6-3.2c-0.1-1.8-0.1-2.3-0.1-6.9s0-5.1,0.1-6.9c0.1-1.7,0.4-2.6,0.6-3.2
		c0.3-0.7,0.7-1.4,1.3-2c0.6-0.6,1.2-1,2-1.3c0.6-0.2,1.5-0.5,3.2-0.6c1.8-0.1,2.3-0.1,6.9-0.1c4.5,0,5.1,0,6.9,0.1
		c1.7,0.1,2.6,0.4,3.2,0.6c0.7,0.3,1.4,0.7,2,1.3c0.6,0.6,1,1.2,1.3,2c0.2,0.6,0.5,1.5,0.6,3.2c0.1,1.8,0.1,2.3,0.1,6.9
		S42.3,33.4,42.2,35.2z"/>
	<path class="st0" d="M28.4,19.6c-4.8,0-8.7,3.9-8.7,8.7s3.9,8.7,8.7,8.7c4.8,0,8.7-3.9,8.7-8.7S33.2,19.6,28.4,19.6z M28.4,34
		c-3.1,0-5.7-2.5-5.7-5.7s2.5-5.7,5.7-5.7c3.1,0,5.7,2.5,5.7,5.7S31.5,34,28.4,34z"/>
	<path class="st0" d="M39.5,19.3c0,1.1-0.9,2-2,2c-1.1,0-2-0.9-2-2c0-1.1,0.9-2,2-2C38.6,17.2,39.5,18.1,39.5,19.3z"/>
</g>
</svg>
