<?xml version="1.0" encoding="utf-8"?>
<!-- Generator: Adobe Illustrator 25.0.0, SVG Export Plug-In . SVG Version: 6.00 Build 0)  -->
<svg version="1.1" id="圖層_1" xmlns="http://www.w3.org/2000/svg" xmlns:xlink="http://www.w3.org/1999/xlink" x="0px" y="0px"
	 viewBox="0 0 28.4 28.4" style="enable-background:new 0 0 28.4 28.4;" xml:space="preserve">
<style type="text/css">
	.st0{fill:#FFFFFF;}
</style>
<g>
	<path class="st0" d="M25,8.8h-2.8V0H6.1v8.8H3.3C1.5,8.8,0,10.3,0,12.1v9c0,1.8,1.5,3.3,3.3,3.3h2.8v3.9h16.1v-3.9H25
		c1.8,0,3.3-1.5,3.3-3.3v-9C28.3,10.3,26.9,8.8,25,8.8z M8.4,2.2H20v6.6H8.4V2.2z M8.4,26.1v-7.4H20v7.4H8.4z M26.1,21.1
		c0,0.6-0.5,1.1-1.1,1.1h-2.8v-3.4h1.7v-2.2H4.4v2.2h1.7v3.4H3.3c-0.6,0-1.1-0.5-1.1-1.1v-9c0-0.6,0.5-1.1,1.1-1.1H25
		c0.6,0,1.1,0.5,1.1,1.1V21.1z M17.8,4.4v2.2h-7.2V4.4H17.8z"/>
</g>
</svg>
