<?xml version="1.0" encoding="utf-8"?>
<!-- Generator: Adobe Illustrator 25.0.0, SVG Export Plug-In . SVG Version: 6.00 Build 0)  -->
<svg version="1.1" id="圖層_1" xmlns="http://www.w3.org/2000/svg" xmlns:xlink="http://www.w3.org/1999/xlink" x="0px" y="0px"
	 viewBox="0 0 48 48" style="enable-background:new 0 0 48 48;" xml:space="preserve">
<style type="text/css">
	.st0{fill:none;}
	.st1{fill:#FFFFFF;}
</style>
<path class="st0" d="M0-0.5h48v48H0V-0.5z"/>
<g>
	<path class="st1" d="M42.7,34.8c1.7-1.9,1.5-4.7-0.3-6.5L27.3,13.1c-0.9-0.9-2.1-1.3-3.3-1.3c-1.2,0-2.4,0.4-3.3,1.3L5.6,28.2
		c-1.8,1.8-2,4.7-0.3,6.5c1.8,2,4.8,2,6.7,0.2l9.7-9.7c1.2-1.2,3.3-1.2,4.5,0l9.7,9.7C37.8,36.8,40.9,36.7,42.7,34.8z"/>
</g>
</svg>
