<?xml version="1.0" encoding="utf-8"?>
<!-- Generator: Adobe Illustrator 16.0.0, SVG Export Plug-In . SVG Version: 6.00 Build 0)  -->
<!DOCTYPE svg PUBLIC "-//W3C//DTD SVG 1.1//EN" "http://www.w3.org/Graphics/SVG/1.1/DTD/svg11.dtd">
<svg version="1.1" id="圖層_1" xmlns="http://www.w3.org/2000/svg" xmlns:xlink="http://www.w3.org/1999/xlink" x="0px" y="0px"
	 width="23px" height="23px" viewBox="0 0 23 23" enable-background="new 0 0 23 23" xml:space="preserve">
<path fill-rule="evenodd" clip-rule="evenodd" fill="#FFFFFF" d="M12.769,11.531c0,3.532,0,7.064,0,10.597
	c0,0.685-0.185,0.869-0.869,0.869c-0.299,0-0.547,0.002-0.928,0.002c-0.283,0.011-0.492-0.098-0.674-0.312
	c-1.674-1.956-3.354-3.905-5.026-5.862c-0.135-0.158-0.269-0.227-0.48-0.226c-1.415,0-2.605,0.004-4.011,0.004
	C0.219,16.603,0,16.384,0,15.825C0,12.942,0,10.058,0,7.174c0-0.558,0.219-0.773,0.78-0.773c1.423,0,2.666,0,4.011,0
	c0.211,0.001,0.344-0.068,0.479-0.227c1.659-1.942,3.328-3.875,4.986-5.818C10.469,0.108,10.702,0,11.032,0
	c0.357,0,0.659,0.002,0.988,0.004c0.517,0.003,0.747,0.229,0.748,0.75c0.002,2.554,0.001,5.108,0.001,7.663
	C12.769,9.455,12.769,10.493,12.769,11.531z"/>
<path fill-rule="evenodd" clip-rule="evenodd" fill="#FFFFFF" d="M23,11.179c0,3.854-1.533,6.386-4.336,8.307
	c-0.533,0.365-0.831,0.292-1.179-0.259c-0.16-0.252-0.319-0.505-0.479-0.759c-0.31-0.495-0.248-0.78,0.233-1.103
	c1.722-1.158,2.806-2.759,3.082-4.811c0.388-2.874-0.651-5.178-3.014-6.87c-0.572-0.41-0.629-0.627-0.25-1.232
	c0.159-0.253,0.317-0.507,0.478-0.759c0.284-0.445,0.61-0.519,1.058-0.225C20.617,4.8,23,7.325,23,11.179z"/>
<path fill-rule="evenodd" clip-rule="evenodd" fill="#FFFFFF" d="M17.872,11.5c-0.033,1.422-0.587,2.588-1.691,3.486
	c-0.425,0.346-0.762,0.297-1.092-0.143c-0.221-0.295-0.446-0.588-0.66-0.888c-0.239-0.334-0.211-0.679,0.114-0.924
	c1.027-0.774,1.025-2.294-0.003-3.066c-0.324-0.243-0.349-0.588-0.108-0.925c0.226-0.316,0.46-0.626,0.696-0.935
	c0.286-0.374,0.635-0.423,1.01-0.125C17.27,8.879,17.838,10.059,17.872,11.5z"/>
</svg>
