<?xml version="1.0" encoding="utf-8"?>
<!-- Generator: Adobe Illustrator 25.0.0, SVG Export Plug-In . SVG Version: 6.00 Build 0)  -->
<svg version="1.1" id="Layer_1" xmlns="http://www.w3.org/2000/svg" xmlns:xlink="http://www.w3.org/1999/xlink" x="0px" y="0px"
	 viewBox="0 0 56.7 56.7" style="enable-background:new 0 0 56.7 56.7;" xml:space="preserve">
<g>
	<g>
		<g>
			<path d="M38.5,33.4l-7.9-5.9V15.4c0-1.2-1-2.2-2.2-2.2s-2.2,1-2.2,2.2v13.2c0,0.7,0.3,1.3,0.9,1.8l8.8,6.6
				c0.4,0.3,0.9,0.4,1.3,0.4c0.7,0,1.3-0.3,1.8-0.9C39.6,35.5,39.4,34.1,38.5,33.4z"/>
		</g>
	</g>
	<g>
		<g>
			<path d="M28.4,0C12.7,0,0,12.7,0,28.4s12.7,28.3,28.3,28.3S56.7,44,56.7,28.4S44,0,28.4,0z M28.4,52.3c-13.2,0-24-10.7-24-24
				s10.7-24,24-24c13.2,0,24,10.7,24,24S41.6,52.3,28.4,52.3z"/>
		</g>
	</g>
</g>
</svg>
