<?xml version="1.0" encoding="utf-8"?>
<!-- Generator: Adobe Illustrator 25.0.0, SVG Export Plug-In . SVG Version: 6.00 Build 0)  -->
<svg version="1.1" id="Layer_1" xmlns="http://www.w3.org/2000/svg" xmlns:xlink="http://www.w3.org/1999/xlink" x="0px" y="0px"
	 viewBox="0 0 56.7 56.7" style="enable-background:new 0 0 56.7 56.7;" xml:space="preserve">
<style type="text/css">
	.st0{fill:#FFFFFF;}
</style>
<path class="st0" d="M44.6,19.7l0,0.3c-0.4-1.5-1.5-2.6-2.9-3l0,0c-2.7-0.7-13.3-0.7-13.3-0.7S17.7,16.3,15,17c-1.4,0.4-2.5,1.5-3,3
	l0,0c-1,5.2-1,11.4,0,16.9l0-0.3c0.4,1.5,1.5,2.6,2.9,3l0,0c2.6,0.7,13.3,0.7,13.3,0.7s10.6,0,13.3-0.7c1.4-0.4,2.5-1.5,3-3l0,0
	c0.5-2.4,0.7-5.2,0.7-8c0-0.1,0-0.2,0-0.3c0-0.1,0-0.2,0-0.3C45.4,25.2,45.1,22.4,44.6,19.7L44.6,19.7z M25,33.5V23.2l8.9,5.2
	L25,33.5z"/>
</svg>
