<?xml version="1.0" encoding="utf-8"?>
<!-- Generator: Adobe Illustrator 25.0.0, SVG Export Plug-In . SVG Version: 6.00 Build 0)  -->
<svg version="1.1" id="Layer_1" xmlns="http://www.w3.org/2000/svg" xmlns:xlink="http://www.w3.org/1999/xlink" x="0px" y="0px"
	 viewBox="0 0 56.7 56.7" style="enable-background:new 0 0 56.7 56.7;" xml:space="preserve">
<style type="text/css">
	.st0{fill:#FFFFFF;}
</style>
<path class="st0" d="M43.6,16.5H13.1c-1.2,0-2.2,1-2.2,2.2v19.2c0,1.2,1,2.2,2.2,2.2h30.5c1.2,0,2.2-1,2.2-2.2V18.8
	C45.9,17.5,44.9,16.5,43.6,16.5z M29.1,28.1L29.1,28.1c-0.2,0.1-0.4,0.2-0.7,0.2c-0.3,0-0.6-0.1-0.7-0.2l-12.4-9.3h26.2L29.1,28.1z
	 M35.5,27.9c-0.2,0.2-0.4,0.5-0.4,0.8c0,0.3,0.1,0.6,0.3,0.8l6.8,8.4H14.6l6.8-8.4c0.4-0.5,0.3-1.2-0.2-1.6
	c-0.2-0.2-0.5-0.3-0.8-0.3c-0.3,0-0.6,0.2-0.8,0.4l-6.5,8V20.1L26.3,30c0.6,0.4,1.3,0.7,2.1,0.7c0.8,0,1.5-0.2,2.1-0.7l13.1-9.8V36
	l-6.5-8c-0.2-0.2-0.5-0.4-0.8-0.4C36,27.6,35.7,27.7,35.5,27.9z"/>
</svg>
